<?xml version="1.0" encoding="UTF-8" standalone="no"?>
<!DOCTYPE svg PUBLIC "-//W3C//DTD SVG 1.1//EN" "http://www.w3.org/Graphics/SVG/1.1/DTD/svg11.dtd">
<svg version="1.1" xmlns="http://www.w3.org/2000/svg" xmlns:xlink="http://www.w3.org/1999/xlink" preserveAspectRatio="xMidYMid meet" viewBox="1052.9710726351352 2638.0373245479705 185.02517545203182 185.0251754520309" width="185.03" height="185.03"><defs><path d="M1156.8 2638.72L1160.48 2639.25L1164.12 2639.92L1167.7 2640.73L1171.24 2641.68L1174.71 2642.76L1178.13 2643.97L1181.48 2645.31L1184.77 2646.78L1187.98 2648.37L1191.13 2650.08L1194.2 2651.91L1197.19 2653.85L1200.11 2655.9L1202.93 2658.06L1205.68 2660.32L1208.33 2662.68L1210.89 2665.15L1213.35 2667.71L1215.72 2670.36L1217.98 2673.1L1220.14 2675.93L1222.19 2678.84L1224.13 2681.83L1225.95 2684.9L1227.66 2688.05L1229.25 2691.27L1230.72 2694.55L1232.06 2697.91L1233.28 2701.32L1234.36 2704.8L1235.31 2708.33L1236.12 2711.92L1236.78 2715.55L1237.31 2719.24L1237.69 2722.97L1237.92 2726.74L1238 2730.55L1237.92 2734.36L1237.69 2738.13L1237.31 2741.86L1236.78 2745.55L1236.12 2749.18L1235.31 2752.77L1234.36 2756.3L1233.28 2759.78L1232.06 2763.19L1230.72 2766.55L1229.25 2769.83L1227.66 2773.05L1225.95 2776.2L1224.13 2779.27L1222.19 2782.26L1220.14 2785.17L1217.98 2788L1215.72 2790.74L1213.35 2793.39L1210.89 2795.95L1208.33 2798.42L1205.68 2800.78L1202.93 2803.04L1200.11 2805.2L1197.19 2807.25L1194.2 2809.19L1191.13 2811.02L1187.98 2812.73L1184.77 2814.32L1181.48 2815.79L1178.13 2817.13L1174.71 2818.34L1171.24 2819.42L1167.7 2820.37L1164.12 2821.18L1160.48 2821.85L1156.8 2822.38L1153.07 2822.76L1149.29 2822.99L1145.48 2823.06L1141.67 2822.99L1137.9 2822.76L1134.17 2822.38L1130.49 2821.85L1126.85 2821.18L1123.26 2820.37L1119.73 2819.42L1116.26 2818.34L1112.84 2817.13L1109.49 2815.79L1106.2 2814.32L1102.98 2812.73L1099.84 2811.02L1096.77 2809.19L1093.77 2807.25L1090.86 2805.2L1088.03 2803.04L1085.29 2800.78L1082.64 2798.42L1080.08 2795.95L1077.62 2793.39L1075.25 2790.74L1072.99 2788L1070.83 2785.17L1068.78 2782.26L1066.84 2779.27L1065.01 2776.2L1063.3 2773.05L1061.71 2769.83L1060.25 2766.55L1058.9 2763.19L1057.69 2759.78L1056.61 2756.3L1055.66 2752.77L1054.85 2749.18L1054.18 2745.55L1053.66 2741.86L1053.28 2738.13L1053.05 2734.36L1052.97 2730.55L1053.05 2726.74L1053.28 2722.97L1053.66 2719.24L1054.18 2715.55L1054.85 2711.92L1055.66 2708.33L1056.61 2704.8L1057.69 2701.32L1058.9 2697.91L1060.25 2694.55L1061.71 2691.27L1063.3 2688.05L1065.01 2684.9L1066.84 2681.83L1068.78 2678.84L1070.83 2675.93L1072.99 2673.1L1075.25 2670.36L1077.62 2667.71L1080.08 2665.15L1082.64 2662.68L1085.29 2660.32L1088.03 2658.06L1090.86 2655.9L1093.77 2653.85L1096.77 2651.91L1099.84 2650.08L1102.98 2648.37L1106.2 2646.78L1109.49 2645.31L1112.84 2643.97L1116.26 2642.76L1119.73 2641.68L1123.26 2640.73L1126.85 2639.92L1130.49 2639.25L1134.17 2638.72L1137.9 2638.34L1141.67 2638.11L1145.48 2638.04L1149.29 2638.11L1153.07 2638.34L1153.07 2638.34L1156.8 2638.72ZM1135.51 2649.57L1132.26 2650.04L1129.05 2650.63L1125.89 2651.34L1122.77 2652.18L1119.71 2653.13L1116.7 2654.2L1113.74 2655.38L1110.84 2656.68L1108.01 2658.08L1105.23 2659.59L1102.52 2661.2L1099.88 2662.91L1097.32 2664.72L1094.82 2666.62L1092.4 2668.62L1090.06 2670.7L1087.81 2672.87L1085.64 2675.13L1083.55 2677.47L1081.55 2679.89L1079.65 2682.38L1077.84 2684.95L1076.13 2687.59L1074.52 2690.3L1073.01 2693.07L1071.61 2695.91L1070.32 2698.81L1069.13 2701.76L1068.06 2704.78L1067.11 2707.84L1066.27 2710.95L1065.56 2714.12L1064.97 2717.32L1064.51 2720.57L1064.17 2723.86L1063.97 2727.19L1063.9 2730.55L1063.97 2733.91L1064.17 2737.24L1064.51 2740.53L1064.97 2743.78L1065.56 2746.98L1066.27 2750.15L1067.11 2753.26L1068.06 2756.32L1069.13 2759.34L1070.32 2762.29L1071.61 2765.19L1073.01 2768.03L1074.52 2770.8L1076.13 2773.51L1077.84 2776.15L1079.65 2778.72L1081.55 2781.21L1083.55 2783.63L1085.64 2785.97L1087.81 2788.23L1090.06 2790.4L1092.4 2792.48L1094.82 2794.48L1097.32 2796.38L1099.88 2798.19L1102.52 2799.9L1105.23 2801.51L1108.01 2803.02L1110.84 2804.42L1113.74 2805.72L1116.7 2806.9L1119.71 2807.97L1122.77 2808.92L1125.89 2809.76L1129.05 2810.47L1132.26 2811.06L1135.51 2811.53L1138.8 2811.86L1142.12 2812.06L1145.48 2812.13L1148.84 2812.06L1152.17 2811.86L1155.46 2811.53L1158.71 2811.06L1161.92 2810.47L1165.08 2809.76L1168.19 2808.92L1171.26 2807.97L1174.27 2806.9L1177.23 2805.72L1180.12 2804.42L1182.96 2803.02L1185.74 2801.51L1188.44 2799.9L1191.08 2798.19L1193.65 2796.38L1196.15 2794.48L1198.56 2792.48L1200.9 2790.4L1203.16 2788.23L1205.33 2785.97L1207.42 2783.63L1209.41 2781.21L1211.32 2778.72L1213.12 2776.15L1214.84 2773.51L1216.45 2770.8L1217.95 2768.03L1219.36 2765.19L1220.65 2762.29L1221.83 2759.34L1222.9 2756.32L1223.86 2753.26L1224.69 2750.15L1225.41 2746.98L1226 2743.78L1226.46 2740.53L1226.79 2737.24L1227 2733.91L1227.07 2730.55L1227 2727.19L1226.79 2723.86L1226.46 2720.57L1226 2717.32L1225.41 2714.12L1224.69 2710.95L1223.86 2707.84L1222.9 2704.78L1221.83 2701.76L1220.65 2698.81L1219.36 2695.91L1217.95 2693.07L1216.45 2690.3L1214.84 2687.59L1213.12 2684.95L1211.32 2682.38L1209.41 2679.89L1207.42 2677.47L1205.33 2675.13L1203.16 2672.87L1200.9 2670.7L1198.56 2668.62L1196.15 2666.62L1193.65 2664.72L1191.08 2662.91L1188.44 2661.2L1185.74 2659.59L1182.96 2658.08L1180.12 2656.68L1177.23 2655.38L1174.27 2654.2L1171.26 2653.13L1168.19 2652.18L1165.08 2651.34L1161.92 2650.63L1158.71 2650.04L1155.46 2649.57L1152.17 2649.24L1148.84 2649.04L1145.48 2648.97L1142.12 2649.04L1138.8 2649.24L1138.8 2649.24L1135.51 2649.57Z" id="bpW8dZzPi"></path><path d="M1077.33 2774.43L1086 2757.1L1204.97 2757.1L1213.64 2774.43L1077.33 2774.43ZM1094.67 2739.77L1102.62 2723.89L1188.35 2723.89L1196.29 2739.77L1094.67 2739.77ZM1111.29 2706.56L1119.78 2689.6L1171.19 2689.6L1179.68 2706.56L1111.29 2706.56ZM1128.45 2672.26L1137.08 2655.02L1153.89 2655.02L1162.52 2672.26L1128.45 2672.26Z" id="n1hrKJggDu"></path></defs><g><g><g><use xlink:href="#bpW8dZzPi" opacity="1" fill="#ffffff" fill-opacity="1"></use></g><g><use xlink:href="#n1hrKJggDu" opacity="1" fill="#43ba2a" fill-opacity="1"></use></g></g></g></svg>